<?xml version="1.0" standalone="no"?>
<!DOCTYPE svg PUBLIC "-//W3C//DTD SVG 20010904//EN"
 "http://www.w3.org/TR/2001/REC-SVG-20010904/DTD/svg10.dtd">
<svg version="1.0" xmlns="http://www.w3.org/2000/svg"
 width="1000.000000pt" height="1125.000000pt" viewBox="0 0 1000.000000 1125.000000"
 preserveAspectRatio="xMidYMid meet">

<g transform="translate(0.000000,1125.000000) scale(0.100000,-0.100000)"
fill="#000000" stroke="none">
<path d="M4609 10469 c-704 -27 -1409 -211 -2023 -527 -228 -118 -356 -198
-356 -222 0 -14 -45 -50 -152 -122 -536 -361 -979 -800 -1316 -1305 -260 -389
-486 -878 -601 -1300 -16 -58 -17 -71 -5 -66 18 7 18 13 -10 -109 -224 -949
-187 -1822 109 -2578 29 -74 65 -160 80 -190 26 -55 26 -55 19 -15 -11 60 -10
78 2 82 7 2 24 -27 39 -69 30 -79 139 -316 241 -525 45 -91 80 -147 114 -184
27 -29 52 -50 55 -48 3 3 -28 77 -69 165 -263 570 -408 1102 -451 1654 -7 98
8 73 29 -50 21 -115 43 -197 56 -205 7 -4 9 178 8 527 -2 399 0 549 10 598 20
105 44 201 48 197 3 -2 0 -35 -5 -73 -34 -239 -32 -658 4 -924 33 -239 87
-488 119 -548 l15 -27 1 25 c0 21 2 22 10 9 6 -11 6 -28 -1 -48 -13 -36 -6
-50 15 -32 13 11 17 7 29 -21 8 -18 63 -145 122 -283 221 -517 342 -718 615
-1022 63 -70 127 -146 141 -168 14 -22 45 -62 67 -90 35 -41 42 -57 42 -93 0
-35 13 -63 72 -163 140 -233 237 -351 532 -642 362 -358 510 -479 793 -648
321 -191 717 -359 1103 -468 207 -58 301 -76 605 -116 149 -20 306 -42 350
-51 105 -20 350 -20 530 1 186 21 629 98 785 136 551 135 1123 399 1600 739
399 284 802 678 1084 1059 805 1087 1111 2507 836 3881 -67 337 -163 647 -287
929 -30 70 -57 134 -60 143 -3 9 -15 18 -27 20 -15 2 -33 28 -69 98 -205 403
-432 746 -690 1046 -137 158 -442 454 -588 571 -350 278 -708 492 -1094 652
-53 23 -99 41 -101 41 -2 0 -1 -7 2 -15 4 -8 2 -15 -4 -15 -5 0 -77 24 -158
54 -348 126 -760 225 -1129 270 -66 9 -169 22 -230 30 -248 33 -563 46 -856
35z m671 -1150 c0 -15 -4 -19 -16 -15 -9 3 -27 9 -40 12 -38 10 -28 24 16 24
34 0 40 -3 40 -21z m-221 4 c-11 -3 -15 -12 -11 -28 4 -23 6 -24 25 -10 29 20
74 19 169 -6 104 -26 129 -23 147 19 18 40 32 40 91 2 25 -16 66 -36 90 -45
40 -14 47 -14 76 0 19 9 31 21 28 28 -8 22 85 8 97 -14 12 -23 37 -25 45 -4 4
10 20 15 46 15 31 0 41 -4 45 -20 3 -11 21 -29 40 -41 19 -12 32 -23 30 -25
-2 -2 -36 3 -76 12 -58 13 -77 14 -101 4 -17 -7 -30 -15 -30 -19 0 -3 73 -24
163 -45 214 -51 444 -123 634 -197 168 -66 523 -243 606 -302 29 -21 84 -58
124 -83 51 -32 81 -59 104 -96 34 -53 80 -88 115 -88 13 0 34 -20 61 -57 22
-32 83 -105 134 -162 136 -149 217 -248 257 -311 19 -30 41 -62 49 -70 23 -25
77 -114 75 -124 -2 -4 2 -14 8 -21 8 -10 7 -14 -2 -18 -9 -3 -3 -15 19 -38 32
-34 73 -112 72 -139 0 -12 -2 -11 -10 3 -13 23 -29 13 -29 -19 0 -22 4 -24 43
-24 54 0 65 -9 36 -31 -19 -14 -21 -20 -12 -55 l10 -39 13 28 c7 15 19 27 27
27 20 0 28 -30 15 -51 -17 -26 -15 -31 6 -18 29 18 54 -2 57 -45 1 -20 -1 -36
-5 -36 -4 0 1 -18 12 -40 15 -30 18 -46 11 -66 l-9 -27 -13 34 c-20 53 -27 64
-44 67 -12 3 -8 -10 17 -46 21 -32 41 -81 55 -138 27 -110 56 -172 87 -186 27
-13 31 -23 10 -31 -19 -8 -13 -55 12 -97 12 -19 22 -40 22 -47 0 -6 12 -21 27
-33 l26 -21 -22 -68 -22 -69 26 -53 c15 -30 35 -63 45 -74 17 -18 17 -26 6
-92 l-12 -72 26 5 c34 7 69 -28 50 -51 -24 -29 -28 -81 -11 -147 13 -52 15
-103 12 -303 -3 -132 -5 -320 -5 -418 -1 -150 -3 -177 -16 -177 -8 0 -25 -18
-36 -40 -19 -33 -20 -41 -8 -51 9 -8 14 -33 14 -73 0 -53 -4 -66 -24 -85 -26
-25 -42 -76 -51 -166 -3 -33 -11 -74 -16 -92 -11 -34 -70 -93 -94 -93 -11 0
-15 -14 -16 -57 0 -63 -10 -90 -82 -232 -36 -69 -51 -91 -60 -82 -13 13 -36
-41 -44 -101 -4 -32 -8 -36 -22 -28 -14 7 -20 2 -30 -26 -7 -19 -49 -76 -93
-127 -48 -54 -91 -114 -105 -147 -43 -99 -53 -114 -144 -214 -49 -55 -95 -113
-101 -128 -13 -29 -24 -35 -30 -18 -4 13 -48 0 -48 -15 0 -6 -14 -31 -31 -55
-17 -24 -40 -62 -50 -84 -16 -36 -22 -41 -51 -41 -32 0 -33 -1 -31 -39 2 -22
5 -41 8 -44 9 -9 81 17 109 39 15 12 58 68 96 124 38 57 83 113 100 125 35 25
39 16 8 -17 -16 -17 -19 -26 -11 -34 13 -13 38 -1 73 36 l25 27 -30 -8 c-29
-7 -29 -6 -13 12 9 10 23 36 32 57 18 43 43 46 38 4 -5 -39 20 -34 49 10 13
21 46 54 73 75 l50 37 23 -31 c26 -36 23 -43 -20 -62 -46 -20 -71 -47 -113
-121 -37 -67 -64 -92 -118 -110 -25 -8 -32 -16 -34 -42 -2 -21 -9 -33 -18 -33
-38 0 -124 -98 -124 -142 0 -22 -54 -48 -100 -48 -33 0 -39 -14 -12 -29 14 -9
10 -10 -19 -11 -45 0 -116 -46 -171 -111 -37 -44 -43 -48 -57 -34 -15 13 -19
11 -42 -18 -15 -18 -63 -52 -107 -76 -79 -42 -94 -61 -49 -61 33 1 96 32 186
94 72 49 96 61 122 58 3 -1 42 32 87 73 45 41 132 109 194 152 62 43 140 104
173 137 54 54 58 60 38 64 -25 4 -31 18 -10 25 6 2 29 0 51 -5 21 -5 40 -7 41
-6 17 25 144 181 259 318 81 96 184 230 229 297 45 67 83 120 84 119 11 -11
-66 -147 -105 -186 -26 -26 -87 -115 -137 -196 -97 -162 -166 -244 -226 -271
-29 -12 -39 -23 -39 -39 0 -37 -17 -71 -70 -140 -28 -36 -60 -84 -71 -105 -18
-37 -23 -40 -57 -37 -35 3 -36 2 -43 -35 -8 -52 -39 -81 -141 -133 -84 -44
-112 -69 -119 -109 -2 -11 -27 -33 -56 -50 -50 -29 -153 -99 -200 -135 -13
-10 -87 -46 -165 -80 -79 -34 -188 -82 -243 -107 -55 -24 -113 -47 -129 -50
-48 -8 -76 -22 -76 -37 0 -23 -96 -79 -125 -72 -13 3 -43 2 -67 -4 -185 -42
-228 -54 -286 -81 -56 -26 -82 -31 -157 -34 -102 -3 -279 -41 -269 -57 4 -6
29 -8 63 -5 37 4 49 3 35 -3 -12 -5 -25 -14 -29 -20 -11 -18 -67 0 -96 31 -36
39 -75 39 -82 2 -3 -16 -4 -29 -3 -30 1 -2 16 1 33 6 40 12 60 0 38 -22 -27
-27 -110 -33 -250 -16 -5 0 -35 -4 -65 -9 -30 -6 -83 -14 -116 -17 -57 -6 -62
-5 -67 15 -4 17 -9 20 -24 12 -10 -6 -57 -8 -103 -6 l-85 5 50 -21 c28 -11 65
-23 83 -26 36 -7 41 -19 13 -34 -15 -8 -28 -5 -56 11 -33 20 -53 22 -203 24
-135 2 -199 8 -337 33 -318 58 -348 62 -415 62 -62 0 -68 2 -63 19 7 27 -69
76 -96 62 -10 -6 -43 -8 -72 -4 -45 5 -59 11 -82 39 -22 26 -45 38 -100 54
-40 12 -95 27 -124 36 -55 15 -98 55 -109 100 -4 14 -14 24 -23 24 -10 0 -40
7 -68 15 -63 19 -280 159 -263 170 13 8 -78 65 -105 65 -18 0 -18 5 -5 30 8
15 5 20 -18 28 -15 5 -49 33 -77 63 -116 125 -164 167 -217 192 -45 21 -75 48
-148 132 -51 58 -108 114 -128 125 -22 11 -30 19 -19 20 11 0 17 8 17 23 0 15
-21 38 -71 77 -38 30 -79 58 -90 62 -17 6 -20 15 -17 45 3 37 2 38 -35 41 -46
4 -53 -10 -37 -69 12 -44 50 -86 187 -210 28 -25 56 -57 63 -70 l13 -24 -27
24 c-30 28 -53 18 -41 -17 10 -34 63 -85 77 -75 10 6 9 8 -4 11 -10 2 -18 12
-18 24 0 19 2 20 18 6 9 -9 32 -23 50 -32 42 -22 44 -50 2 -44 -40 6 -38 -10
5 -45 19 -15 48 -54 64 -86 l30 -58 -35 -12 c-41 -15 -50 -11 -58 30 -6 30
-33 61 -134 149 -23 20 -43 48 -47 65 -13 61 -23 75 -54 75 -24 0 -28 4 -28
25 0 46 -95 144 -128 132 -20 -8 -46 54 -39 92 5 24 3 31 -10 31 -9 0 -16 -5
-16 -12 0 -6 -3 -8 -7 -4 -4 4 -6 22 -5 41 4 42 -22 94 -83 164 -45 53 -46 55
-26 66 21 11 21 11 -5 35 -15 14 -46 66 -70 115 -32 68 -44 86 -49 72 -14 -34
4 -100 54 -204 28 -58 51 -114 51 -125 0 -11 22 -50 49 -87 69 -93 147 -257
143 -298 -2 -18 -8 -33 -13 -33 -20 0 -250 219 -290 277 -24 35 -28 46 -19 63
6 11 16 19 22 17 16 -3 21 27 13 69 -4 25 -11 34 -26 34 -11 0 -22 7 -25 15
-7 18 -41 20 -47 3 -3 -7 -10 0 -16 16 -6 16 -20 41 -31 56 -10 14 -44 109
-75 211 -80 262 -121 381 -162 467 -34 72 -35 80 -34 176 2 97 -22 262 -48
328 -6 16 -7 48 -1 86 9 66 -3 252 -19 280 -9 15 -11 14 -19 -8 -5 -14 -7 -44
-4 -66 2 -24 -2 -52 -9 -65 l-13 -24 -7 30 c-12 54 -9 287 6 430 8 77 15 170
15 207 0 57 3 68 19 73 13 4 18 12 14 21 -3 8 0 41 7 73 7 32 10 66 8 77 -6
25 -73 -114 -90 -185 -7 -32 -18 -53 -29 -56 -15 -5 -17 -25 -21 -173 -3 -92
-8 -175 -13 -185 -5 -13 -14 -17 -30 -13 -21 5 -24 1 -35 -62 -17 -97 -21
-108 -30 -91 -4 8 -14 48 -21 89 -17 91 -15 773 2 778 5 2 19 21 29 43 11 21
22 39 24 39 2 0 1 -39 -1 -87 -4 -69 -2 -92 10 -108 20 -26 20 -28 46 182 85
666 297 1264 621 1748 73 109 185 254 250 325 l41 45 -4 -67 c-1 -38 0 -68 4
-68 10 0 130 143 244 290 104 133 228 266 296 316 26 18 49 34 53 34 17 0 1
-27 -46 -77 l-53 -56 45 32 c30 21 70 36 120 47 88 18 108 31 62 40 -18 4 -32
9 -32 13 0 10 134 126 142 123 15 -4 79 27 116 56 21 16 48 35 62 42 25 12 25
12 -2 -14 -15 -15 -35 -40 -44 -57 -15 -30 -15 -31 8 -24 76 21 82 27 78 73
-1 21 1 22 53 16 51 -6 56 -5 67 17 7 13 17 27 23 30 5 4 10 17 11 30 1 19 8
25 36 30 19 4 112 38 205 77 261 107 395 149 498 156 95 8 163 25 205 52 25
16 25 18 7 25 -20 7 -20 8 0 8 26 1 49 -14 41 -27 -10 -16 38 -23 50 -7 10 13
94 27 247 41 57 5 67 8 67 25 0 18 18 24 60 21 8 -1 36 -3 62 -4 44 -2 47 -4
42 -25 -7 -26 2 -28 59 -12 22 6 36 15 34 22 -6 17 28 33 71 33 20 1 30 -1 21
-3z m541 -41 c27 -12 31 -16 16 -19 -20 -5 -102 23 -111 38 -8 12 51 0 95 -19z
m-2382 -397 c-9 -20 -16 -23 -37 -18 -38 9 -38 11 0 27 47 21 50 20 37 -9z
m-934 -6029 c26 -27 28 -27 41 -10 21 29 30 8 18 -39 l-12 -42 87 -89 c48 -49
79 -86 69 -82 -36 12 -202 132 -265 190 -90 84 -109 128 -31 71 19 -13 47 -32
63 -41 l30 -16 -36 41 c-31 36 -41 60 -65 146 -3 11 13 -7 34 -40 22 -33 52
-73 67 -89z m404 -566 c15 0 22 6 22 20 0 11 3 20 6 20 4 0 41 -31 83 -68 120
-108 200 -172 279 -223 79 -52 435 -234 684 -349 145 -67 157 -75 152 -96 -7
-25 22 -40 56 -29 21 7 50 -9 50 -28 0 -22 -134 0 -217 36 -45 20 -103 39
-130 43 -31 4 -69 21 -106 46 -32 22 -136 77 -231 122 -112 54 -185 96 -208
118 -19 20 -44 39 -56 42 -11 4 -67 41 -124 82 -57 42 -116 82 -131 90 -15 8
-25 18 -23 23 3 4 0 16 -8 26 -10 14 -17 15 -34 6 -34 -18 -49 -13 -56 21 -4
21 -26 51 -60 84 l-53 52 41 -19 c22 -10 51 -19 64 -19z"/>
<path d="M5300 6478 l0 -221 -36 36 c-61 61 -115 81 -219 82 -79 0 -97 -3
-147 -28 -125 -61 -188 -191 -188 -389 0 -199 66 -332 194 -390 41 -18 68 -23
141 -23 105 1 160 21 217 79 41 42 48 44 48 12 0 -13 3 -38 6 -55 6 -30 9 -31
55 -31 l49 0 0 575 0 575 -60 0 -60 0 0 -222z m-125 -225 c16 -9 40 -25 52
-36 79 -72 96 -367 28 -483 -35 -59 -98 -88 -190 -88 -80 0 -117 15 -163 68
-44 50 -63 122 -63 241 0 181 56 289 162 315 44 11 136 2 174 -17z"/>
<path d="M3473 6652 c-6 -4 -17 -20 -23 -36 -31 -81 47 -149 111 -97 32 26 34
105 5 127 -21 15 -73 19 -93 6z"/>
<path d="M4376 6638 c-24 -34 -20 -85 9 -113 27 -28 45 -31 78 -14 31 17 37
28 37 75 0 51 -23 74 -73 74 -26 0 -40 -6 -51 -22z"/>
<path d="M2500 6575 l0 -55 170 0 170 0 2 -482 3 -483 60 0 60 0 3 483 2 482
170 0 170 0 0 55 0 55 -405 0 -405 0 0 -55z"/>
<path d="M3870 6464 l-25 -86 -55 -23 c-48 -20 -55 -27 -58 -54 l-3 -30 58 -3
58 -3 5 -290 c5 -269 7 -293 26 -330 39 -75 123 -111 234 -102 95 8 100 11
100 64 l0 44 -67 -6 c-83 -7 -129 12 -155 65 -16 31 -18 68 -18 298 l0 262
115 0 115 0 0 45 0 45 -115 0 -115 0 0 95 0 95 -38 0 -37 0 -25 -86z"/>
<path d="M6306 6518 c-22 -6 -55 -27 -77 -49 -54 -54 -64 -118 -34 -214 5 -16
-17 -42 -103 -128 l-108 -108 -37 16 c-111 46 -235 -29 -245 -150 -6 -71 2
-97 40 -141 71 -80 186 -87 261 -16 56 53 72 110 52 186 l-14 51 109 109 c104
105 110 109 135 98 33 -15 102 -15 145 -1 32 12 32 12 140 -96 l107 -107 -14
-41 c-53 -152 97 -293 244 -232 50 21 72 42 94 90 50 109 -9 230 -125 256 -42
9 -59 8 -96 -5 l-45 -16 -109 110 c-105 104 -109 110 -98 135 18 40 15 121 -8
165 -23 45 -60 73 -115 89 -46 12 -47 12 -99 -1z m98 -78 c31 -11 66 -65 66
-100 0 -40 -35 -87 -74 -100 -49 -16 -101 2 -127 44 -24 40 -24 73 1 114 29
48 79 63 134 42z m-448 -504 c49 -49 45 -114 -10 -158 -29 -24 -97 -23 -129 2
-81 64 -37 190 66 190 31 0 46 -7 73 -34z m947 14 c54 -43 52 -134 -4 -174
-26 -18 -90 -21 -120 -6 -43 23 -61 101 -35 149 29 52 112 68 159 31z"/>
<path d="M6795 6521 c-68 -17 -117 -65 -136 -133 -39 -145 103 -268 251 -217
32 12 32 12 140 -96 l108 -108 -14 -33 c-17 -42 -17 -100 0 -139 l14 -30 -110
-111 -111 -112 -33 14 c-105 44 -232 -27 -251 -139 -19 -122 94 -234 214 -212
111 20 182 145 140 246 l-15 36 112 111 111 110 30 -14 c132 -59 288 76 247
215 -32 104 -135 161 -232 127 l-45 -15 -111 110 -111 111 14 30 c22 43 13
127 -18 172 -41 60 -126 94 -194 77z m102 -91 c34 -21 54 -69 46 -113 -7 -35
-54 -77 -94 -83 -89 -13 -154 99 -98 170 38 49 93 58 146 26z m466 -471 c38
-19 57 -51 57 -97 0 -63 -40 -102 -105 -102 -38 0 -52 5 -76 29 -64 64 -21
181 66 181 20 0 46 -5 58 -11z m-464 -485 c84 -59 42 -194 -61 -194 -52 0
-108 51 -108 99 0 38 23 86 47 100 28 16 96 13 122 -5z"/>
<path d="M3452 5958 l3 -403 60 0 60 0 3 403 2 402 -65 0 -65 0 2 -402z"/>
<path d="M4370 5955 l0 -405 60 0 60 0 0 405 0 405 -60 0 -60 0 0 -405z"/>
<path d="M6290 6034 c-42 -18 -77 -50 -97 -87 -18 -35 -19 -118 -2 -158 12
-31 12 -31 -97 -140 l-110 -110 -33 17 c-74 37 -182 0 -232 -80 -31 -48 -23
-151 15 -201 51 -66 138 -91 213 -60 l37 16 108 -108 c72 -72 106 -113 102
-123 -32 -85 -25 -153 22 -210 107 -127 324 -52 324 113 0 57 -14 94 -48 131
-50 53 -128 70 -202 45 -32 -12 -32 -12 -141 97 -75 75 -107 114 -103 124 24
55 27 100 9 146 l-18 46 110 109 109 110 33 -17 c74 -37 183 0 232 80 21 35
26 117 8 163 -33 89 -149 136 -239 97z m114 -74 c31 -11 66 -65 66 -100 0 -42
-35 -88 -78 -100 -78 -24 -151 39 -138 118 11 72 79 109 150 82z m-463 -480
c25 -14 49 -62 49 -101 0 -48 -56 -99 -108 -99 -76 0 -127 74 -99 143 8 19 25
42 38 51 26 18 90 21 120 6z m464 -474 c35 -15 65 -59 65 -96 0 -53 -57 -110
-110 -110 -53 0 -110 57 -110 110 0 36 30 81 63 95 41 18 50 18 92 1z"/>
<path d="M6285 5556 c-39 -17 -93 -78 -101 -114 -3 -15 -7 -32 -9 -39 -8 -24
23 -114 46 -140 30 -32 95 -63 134 -62 17 0 48 6 70 14 l40 15 107 -108 108
-107 -16 -45 c-48 -138 78 -277 217 -240 48 13 107 64 125 107 18 42 18 111 0
144 -13 26 -12 29 98 138 l111 110 47 -16 c77 -28 158 1 209 76 34 49 34 143
0 193 -56 82 -151 109 -236 68 -85 -41 -127 -148 -92 -232 l15 -35 -108 -108
c-108 -108 -108 -108 -140 -96 -42 14 -108 14 -150 0 -32 -12 -32 -12 -137 94
-106 105 -106 105 -94 137 15 45 14 125 -3 158 -19 36 -65 78 -99 91 -38 15
-105 13 -142 -3z m144 -87 c106 -99 -33 -257 -141 -160 -28 25 -33 36 -33 75
0 36 6 51 29 75 25 26 37 31 76 31 33 0 53 -6 69 -21z m962 -8 c66 -66 18
-181 -76 -181 -61 0 -104 45 -105 108 0 63 40 102 105 102 38 0 52 -5 76 -29z
m-506 -456 c80 -39 78 -161 -4 -195 -69 -28 -151 23 -151 96 0 46 14 71 53 94
39 24 59 25 102 5z"/>
<path d="M3703 5253 c-33 -6 -28 -23 7 -23 l30 0 0 -256 c0 -240 1 -256 18
-248 9 4 31 7 47 5 127 -8 164 -6 191 15 55 41 69 70 72 152 4 94 -15 136 -71
165 -48 25 -114 16 -157 -19 l-30 -26 0 121 0 121 -42 -1 c-24 -1 -53 -4 -65
-6z m241 -204 c36 -17 51 -63 50 -151 -2 -127 -51 -177 -144 -149 l-40 12 0
109 c0 103 1 110 27 140 23 28 53 47 75 49 4 1 18 -4 32 -10z"/>
<path d="M2500 5145 c0 -65 14 -71 31 -15 l12 40 64 0 63 0 0 -210 0 -210 -29
0 c-17 0 -33 -4 -36 -10 -4 -6 32 -10 100 -10 68 0 104 4 100 10 -3 6 -19 10
-36 10 l-29 0 0 210 0 210 64 0 64 0 9 -37 c14 -60 33 -53 33 11 l0 56 -205 0
-205 0 0 -55z"/>
<path d="M5320 5136 c0 -42 -22 -61 -66 -58 -96 7 -164 -45 -164 -125 0 -40 5
-51 39 -83 l38 -37 -28 -10 c-33 -13 -40 -51 -14 -73 13 -11 11 -16 -16 -41
-26 -24 -30 -34 -27 -71 2 -35 9 -46 37 -65 46 -31 163 -33 220 -3 77 39 106
116 60 159 -24 22 -42 27 -147 40 -41 5 -77 12 -80 16 -16 16 18 40 64 46 91
11 144 57 144 124 0 34 -25 82 -51 95 -19 11 -19 12 13 33 18 13 34 31 36 40
5 23 -15 47 -39 47 -15 0 -19 -7 -19 -34z m-36 -95 c26 -28 31 -109 9 -151
-16 -32 -22 -35 -63 -35 -37 0 -46 4 -57 25 -21 41 -16 123 8 154 25 32 77 36
103 7z m43 -342 c87 -27 18 -129 -89 -129 -86 0 -132 64 -91 126 16 25 19 26
82 19 36 -3 80 -11 98 -16z"/>
<path d="M3066 5070 c-67 -20 -106 -85 -106 -176 0 -112 76 -183 182 -171 53
7 95 28 105 53 8 22 -7 32 -18 11 -14 -24 -62 -47 -98 -47 -58 0 -100 64 -101
153 l0 27 115 0 115 0 0 35 c0 93 -90 146 -194 115z m104 -30 c12 -12 20 -33
20 -55 l0 -35 -79 0 -80 0 10 33 c18 67 88 98 129 57z"/>
<path d="M3554 5070 c-11 -4 -33 -22 -47 -40 l-27 -32 0 36 0 36 -60 0 c-33 0
-60 -4 -60 -10 0 -5 11 -10 25 -10 l25 0 0 -150 c0 -143 -1 -150 -20 -150 -11
0 -20 -4 -20 -10 0 -6 37 -10 91 -10 57 0 88 4 84 10 -3 6 -19 10 -36 10 l-29
0 0 104 c0 57 3 112 6 121 9 23 61 47 96 43 38 -4 59 22 39 46 -15 17 -35 19
-67 6z"/>
<path d="M4264 5066 c-58 -25 -83 -85 -44 -106 26 -14 40 -5 40 24 0 34 37 76
66 76 42 0 64 -33 64 -95 l0 -55 -33 0 c-53 0 -135 -28 -152 -53 -22 -32 -19
-90 6 -113 32 -29 119 -26 153 5 l25 24 7 -27 c7 -28 15 -30 77 -20 41 7 51
24 13 24 -23 0 -24 1 -28 128 -2 76 -9 136 -17 150 -25 46 -114 65 -177 38z
m126 -221 c0 -37 -5 -51 -26 -70 -54 -50 -128 -14 -107 52 10 32 63 63 106 63
25 0 27 -3 27 -45z"/>
<path d="M4785 5070 c-16 -5 -43 -24 -59 -42 l-28 -33 5 38 6 37 -52 0 c-29 0
-59 -5 -67 -10 -11 -7 -7 -10 18 -10 l32 0 0 -150 c0 -142 -1 -150 -19 -150
-11 0 -23 -4 -26 -10 -4 -6 25 -10 79 -10 51 0 86 4 86 10 0 6 -11 10 -25 10
l-25 0 0 105 c0 113 11 150 52 179 31 22 64 20 88 -4 18 -18 20 -33 20 -150 0
-123 -1 -130 -20 -130 -11 0 -20 -4 -20 -10 0 -6 34 -10 81 -10 51 0 78 4 74
10 -3 6 -15 10 -26 10 -18 0 -19 8 -19 125 0 143 -10 176 -61 194 -37 13 -52
13 -94 1z"/>
<path d="M1887 3322 c-16 -7 -15 -10 10 -34 26 -24 65 -48 77 -48 8 0 -15 52
-32 73 -16 18 -26 20 -55 9z"/>
</g>
</svg>
