<?xml version="1.0" standalone="no"?>
<!DOCTYPE svg PUBLIC "-//W3C//DTD SVG 20010904//EN"
 "http://www.w3.org/TR/2001/REC-SVG-20010904/DTD/svg10.dtd">
<svg version="1.0" xmlns="http://www.w3.org/2000/svg"
 width="1000.000000pt" height="1125.000000pt" viewBox="0 0 1000.000000 1125.000000"
 preserveAspectRatio="xMidYMid meet">

<g transform="translate(0.000000,1125.000000) scale(0.100000,-0.100000)"
fill="#000000" stroke="none">
<path d="M4535 10463 c-203 -16 -310 -27 -429 -44 -420 -60 -845 -178 -1214
-336 -280 -119 -658 -328 -664 -367 -2 -12 -29 -38 -68 -65 -311 -213 -488
-351 -701 -547 -406 -375 -732 -811 -987 -1320 -121 -242 -233 -527 -298 -757
-18 -66 -22 -92 -14 -97 9 -5 2 -51 -23 -166 -212 -956 -169 -1789 129 -2541
57 -144 110 -263 89 -198 -4 11 -9 37 -12 59 -5 32 -3 38 12 35 11 -3 28 -31
47 -79 30 -77 109 -249 230 -499 48 -98 84 -158 115 -192 25 -27 48 -48 50
-45 2 2 -26 68 -63 147 -255 551 -424 1165 -449 1634 -8 139 6 123 35 -41 12
-65 30 -137 40 -159 l18 -40 1 115 c1 63 -4 244 -10 403 -14 390 3 630 58 800
8 27 16 47 18 45 2 -2 -3 -48 -11 -103 -20 -145 -28 -521 -15 -708 18 -252 68
-556 119 -711 23 -74 26 -78 32 -51 6 25 8 27 15 12 4 -11 3 -35 -3 -55 -10
-33 -5 -64 5 -34 3 6 10 12 16 12 7 0 66 -127 132 -283 136 -319 222 -495 315
-645 85 -135 221 -310 335 -430 51 -54 99 -110 108 -127 8 -16 38 -58 66 -93
43 -54 51 -70 51 -106 0 -34 13 -63 68 -154 134 -224 319 -453 494 -615 56
-50 155 -146 222 -213 353 -353 827 -634 1431 -849 305 -108 524 -160 876
-205 129 -16 290 -39 359 -51 107 -18 150 -21 300 -16 357 12 955 119 1325
237 277 89 653 257 915 410 1040 607 1795 1538 2158 2660 366 1132 307 2406
-163 3485 -41 94 -57 121 -73 123 -16 3 -38 37 -93 145 -101 200 -175 326
-304 522 -391 592 -883 1062 -1495 1428 -169 101 -596 307 -635 307 -3 0 -5
-7 -5 -16 0 -12 -5 -14 -17 -8 -10 4 -119 42 -243 84 -298 100 -510 155 -790
204 -186 32 -594 83 -775 96 -127 9 -531 11 -630 3z m749 -1139 c10 -26 -2
-33 -37 -22 -17 6 -38 13 -45 14 -26 7 0 24 38 24 25 0 40 -5 44 -16z m-209
-4 c-3 -5 -13 -6 -21 -3 -14 5 -15 3 -5 -15 10 -19 13 -20 42 -5 29 14 38 14
138 -10 59 -15 116 -24 128 -21 12 3 26 19 32 35 12 34 40 38 79 11 37 -26 61
-37 38 -18 -20 16 -20 16 0 16 32 0 124 -30 124 -40 0 -6 -12 -10 -27 -11
l-28 0 24 -10 c14 -5 27 -6 30 -1 3 5 14 11 24 15 9 3 17 14 17 22 0 14 8 15
48 9 26 -4 51 -13 55 -20 11 -19 47 -18 47 1 0 9 9 15 23 15 37 0 67 -12 67
-25 0 -7 17 -27 38 -45 l37 -31 -40 8 c-54 10 -154 10 -157 -1 -2 -4 83 -30
189 -56 234 -60 501 -148 688 -228 172 -74 483 -235 523 -272 17 -15 37 -30
46 -33 38 -15 136 -89 157 -119 45 -66 82 -98 113 -98 27 -1 38 -11 79 -68 26
-37 108 -134 183 -217 74 -82 161 -188 192 -235 31 -47 65 -93 75 -102 9 -10
17 -22 17 -28 0 -5 14 -25 31 -45 17 -19 26 -35 19 -35 -10 0 -10 -3 0 -15 6
-8 10 -20 7 -27 -2 -7 9 -29 25 -50 33 -43 58 -98 58 -130 -1 -21 -2 -21 -11
-5 -11 19 -29 14 -29 -9 0 -9 11 -14 36 -14 38 0 74 -15 74 -30 0 -6 -9 -10
-20 -10 -17 0 -20 -7 -20 -42 l1 -43 20 28 c25 32 35 34 49 6 9 -16 8 -24 -5
-39 -15 -16 -14 -17 10 -13 36 7 51 -10 50 -59 -1 -24 5 -52 12 -63 15 -23 17
-77 4 -91 -12 -11 38 -201 63 -239 10 -15 32 -33 49 -41 30 -13 31 -14 10 -20
-16 -4 -23 -14 -23 -31 0 -32 57 -153 76 -160 18 -7 17 -36 -5 -98 l-18 -50
33 -66 c18 -37 40 -69 48 -72 12 -5 13 -13 6 -34 -4 -15 -11 -47 -14 -70 -6
-40 -5 -43 17 -43 13 0 32 -6 42 -14 16 -12 18 -18 8 -37 -21 -44 -23 -92 -7
-178 14 -74 15 -120 8 -331 -5 -135 -9 -311 -9 -392 1 -131 -1 -147 -17 -151
-25 -7 -52 -76 -36 -95 7 -8 13 -39 13 -70 0 -47 -4 -60 -26 -82 -27 -27 -37
-61 -57 -202 -11 -76 -36 -118 -82 -140 -29 -14 -32 -20 -35 -74 -3 -47 -16
-83 -69 -191 -43 -87 -70 -131 -78 -128 -16 6 -52 -78 -45 -105 6 -23 3 -24
-24 -10 -16 9 -19 7 -19 -8 0 -26 -41 -84 -113 -161 -37 -40 -71 -90 -89 -130
-17 -36 -35 -76 -41 -88 -5 -13 -50 -67 -98 -120 -49 -54 -97 -115 -106 -135
-18 -38 -33 -49 -33 -24 0 9 -8 12 -25 8 -14 -2 -25 -10 -25 -17 0 -6 -18 -40
-40 -74 -22 -33 -43 -73 -46 -87 -5 -20 -12 -25 -33 -24 -51 4 -52 2 -45 -37
4 -21 7 -39 8 -40 1 -1 19 2 39 8 53 14 100 59 167 159 64 95 128 159 140 140
5 -7 16 7 30 37 13 26 28 51 34 55 18 12 28 -4 22 -33 -8 -42 14 -36 43 10 13
22 49 58 80 81 50 36 56 39 59 21 2 -11 10 -25 18 -31 25 -21 15 -40 -30 -60
-45 -19 -79 -56 -114 -125 -25 -49 -54 -77 -107 -102 -31 -14 -41 -25 -45 -48
-3 -20 -12 -31 -25 -33 -37 -7 -124 -109 -111 -130 10 -17 -33 -44 -79 -49
-25 -3 -45 -10 -45 -14 0 -5 5 -9 10 -9 6 0 10 -7 10 -15 0 -8 -6 -12 -15 -9
-30 12 -90 -20 -160 -87 -63 -60 -74 -67 -85 -54 -12 14 -15 13 -30 -11 -20
-30 -51 -52 -135 -97 -59 -31 -59 -32 -28 -35 38 -4 83 18 193 93 44 30 91 55
103 55 14 0 43 21 77 55 30 31 117 99 193 153 76 53 161 118 189 146 47 46 49
50 29 57 -14 6 -19 14 -15 24 5 13 16 15 58 10 l52 -7 43 57 c23 31 93 115
155 188 155 181 252 307 321 415 32 51 60 91 62 89 2 -2 -11 -37 -28 -78 -21
-48 -50 -94 -84 -131 -30 -32 -90 -118 -135 -192 -105 -176 -148 -229 -215
-267 -43 -24 -55 -36 -55 -55 0 -32 -23 -75 -72 -138 -22 -27 -49 -68 -60 -90
-25 -50 -35 -57 -63 -46 -28 11 -45 -5 -45 -41 0 -42 -33 -73 -129 -123 -89
-46 -131 -83 -131 -116 0 -9 -11 -22 -25 -28 -14 -7 -71 -44 -127 -83 -120
-84 -159 -104 -401 -211 -206 -90 -216 -94 -274 -108 -26 -7 -43 -16 -43 -25
0 -8 -24 -31 -54 -51 -46 -30 -57 -34 -75 -24 -12 6 -26 8 -32 4 -7 -4 -46
-13 -89 -20 -83 -14 -238 -64 -274 -87 -13 -9 -61 -16 -126 -19 -120 -6 -258
-34 -242 -50 7 -7 28 -6 62 1 29 6 55 10 57 7 2 -2 -15 -13 -38 -24 -40 -20
-109 -21 -109 -1 0 17 -33 39 -61 39 -22 0 -29 -5 -29 -20 0 -16 6 -19 36 -17
46 3 55 -24 15 -43 -39 -19 -177 -25 -207 -10 -18 10 -32 11 -61 2 -21 -6 -71
-14 -112 -17 -40 -4 -79 -9 -87 -12 -9 -3 -14 2 -14 13 0 17 -10 19 -96 21
-53 1 -94 -1 -91 -3 3 -3 38 -16 77 -28 72 -23 72 -23 49 -40 -29 -20 -43 -20
-58 -2 -18 21 -63 27 -231 30 -132 2 -195 9 -423 49 -147 26 -293 47 -323 47
-50 0 -55 2 -49 20 8 25 -69 78 -90 60 -8 -7 -36 -8 -79 -4 -52 5 -67 11 -71
25 -9 28 -81 65 -150 79 -113 22 -195 78 -195 133 0 10 -15 16 -49 20 -59 7
-108 31 -216 105 -101 70 -102 71 -89 80 7 4 -16 20 -52 37 -54 25 -63 33 -59
51 4 17 -2 24 -24 34 -16 6 -72 58 -125 115 -68 74 -111 111 -149 130 -52 25
-103 72 -201 185 -26 30 -64 65 -84 77 -29 18 -33 23 -19 29 26 10 20 42 -11
58 -16 8 -35 22 -43 32 -8 10 -37 32 -66 51 -49 31 -52 34 -46 68 6 37 0 41
-44 29 -18 -5 -23 -14 -23 -38 0 -51 39 -105 134 -185 87 -74 140 -136 130
-152 -2 -4 7 -16 22 -26 65 -46 80 -62 64 -72 -8 -6 -25 -8 -37 -4 -33 8 -28
-9 10 -33 35 -23 121 -169 93 -158 -8 3 -25 -1 -38 -10 -29 -19 -43 -10 -53
33 -7 33 -21 49 -134 148 -33 30 -46 51 -56 88 -11 46 -15 50 -44 53 -26 3
-31 7 -31 29 0 33 -101 138 -125 130 -20 -8 -45 41 -45 88 0 19 -4 35 -10 35
-5 0 -10 -4 -10 -10 0 -5 -5 -10 -11 -10 -7 0 -8 11 -4 30 9 39 -19 99 -80
174 -41 50 -46 60 -32 68 14 8 12 14 -16 51 -18 23 -45 72 -61 109 -15 38 -33
65 -38 62 -20 -12 1 -86 57 -204 31 -65 54 -123 51 -128 -3 -5 17 -39 44 -76
51 -71 171 -294 150 -281 -9 5 -10 1 -5 -14 4 -13 1 -28 -5 -36 -10 -13 -25
-3 -94 58 -185 165 -242 234 -230 281 4 17 11 25 20 22 19 -7 26 9 19 46 -8
41 -69 86 -91 67 -8 -7 -16 -10 -17 -8 -36 58 -91 202 -146 384 -68 225 -113
349 -150 411 -15 25 -17 45 -13 106 5 81 -9 204 -35 303 -10 39 -16 117 -18
225 -1 91 -6 175 -10 187 -13 40 -25 14 -25 -55 0 -63 -11 -104 -25 -90 -3 3
-11 37 -16 74 -11 70 -6 204 12 369 5 50 10 136 10 193 1 91 3 102 18 102 14
0 19 11 24 53 4 28 9 70 12 92 5 36 1 31 -36 -43 -22 -45 -43 -102 -47 -125
-5 -30 -14 -45 -29 -52 -22 -9 -22 -14 -21 -155 2 -174 -10 -233 -46 -224 -22
5 -24 1 -36 -73 -15 -92 -24 -107 -39 -61 -24 76 -32 223 -29 533 3 303 4 320
23 341 11 12 28 32 37 45 18 23 18 22 12 -61 -5 -67 -3 -89 9 -105 18 -23 14
-40 47 205 97 711 319 1298 687 1817 81 114 205 258 218 252 6 -2 9 -31 7 -64
l-2 -60 22 26 c13 14 95 115 183 225 170 211 270 319 348 372 39 28 47 30 47
15 0 -9 -21 -40 -47 -67 -42 -43 -43 -46 -13 -24 38 28 81 43 150 53 59 9 72
18 35 25 -16 3 -31 12 -32 20 -2 19 136 136 157 132 8 -1 31 8 51 21 135 84
149 97 107 97 -21 0 -20 2 7 18 17 10 38 21 49 25 16 6 17 4 11 -20 -3 -16
-14 -32 -23 -37 -25 -13 -92 -85 -92 -98 0 -13 57 -3 77 13 7 6 13 26 13 43
l0 32 60 -4 c49 -4 60 -2 60 11 0 8 7 20 16 28 8 7 13 21 11 31 -6 21 1 27 40
32 15 2 84 27 152 56 259 109 418 161 536 175 130 16 158 22 208 47 40 20 50
33 17 23 -11 -3 -20 -2 -20 3 0 16 36 20 61 6 13 -7 20 -13 16 -14 -4 0 -2 -6
5 -14 11 -12 16 -12 33 4 15 15 47 21 140 29 66 6 131 11 143 11 15 0 26 7 29
19 5 21 32 30 78 27 17 -2 45 -4 64 -4 28 -2 33 -5 28 -22 -4 -17 0 -20 33
-20 21 0 43 7 50 15 10 12 10 15 -1 15 -8 1 -3 7 11 15 28 16 115 21 105 5z
m-2867 -6352 c17 -29 47 -73 68 -97 35 -41 38 -42 46 -22 8 22 23 27 33 12 3
-5 0 -30 -7 -55 l-12 -46 94 -96 c101 -102 95 -104 -40 -14 -100 67 -177 132
-226 189 -30 35 -33 41 -16 41 10 0 40 -16 65 -35 58 -44 67 -44 28 0 -17 19
-38 61 -47 93 -9 31 -19 63 -21 70 -12 29 8 8 35 -40z m465 -672 c21 -5 27 -3
27 9 0 37 32 25 98 -36 92 -87 204 -178 282 -228 72 -47 473 -250 702 -356
132 -61 146 -70 137 -87 -12 -22 -4 -26 56 -30 34 -3 41 -7 43 -27 4 -24 3
-24 -55 -18 -33 4 -104 24 -160 47 -55 22 -117 40 -137 40 -26 0 -49 10 -83
37 -27 20 -130 76 -230 124 -100 49 -199 103 -220 122 -21 19 -54 42 -73 52
-19 10 -75 49 -125 87 -49 37 -105 74 -123 80 -22 8 -31 17 -27 28 2 8 1 21
-4 29 -7 11 -13 11 -32 -3 -32 -22 -49 -20 -49 7 0 33 -43 90 -100 132 -27 20
-50 39 -50 41 0 2 21 -6 48 -19 26 -13 59 -27 75 -31z"/>
<path d="M8305 7120 c10 -11 19 -20 21 -20 1 0 0 9 -3 20 -3 11 -12 20 -21 20
-13 0 -12 -3 3 -20z"/>
<path d="M5302 6480 c1 -121 0 -220 -3 -220 -3 0 -16 12 -30 26 -62 66 -179
101 -283 84 -152 -25 -245 -139 -269 -330 -21 -169 18 -324 103 -409 62 -62
126 -85 231 -84 92 1 155 26 215 84 l41 41 7 -56 7 -56 50 0 49 0 0 570 0 570
-61 0 -61 0 4 -220z m-159 -211 c56 -15 113 -71 134 -132 14 -41 18 -83 18
-192 0 -122 -3 -146 -21 -186 -36 -78 -112 -119 -219 -119 -95 1 -164 52 -202
151 -26 70 -24 267 5 340 48 122 156 174 285 138z"/>
<path d="M3467 6642 c-23 -26 -22 -94 1 -115 25 -22 75 -21 95 1 23 26 22 94
-1 115 -25 22 -75 21 -95 -1z"/>
<path d="M4388 6643 c-24 -27 -30 -57 -18 -89 14 -35 26 -44 67 -44 39 0 63
30 63 77 0 61 -75 98 -112 56z"/>
<path d="M2500 6580 l0 -50 173 -2 172 -3 3 -482 2 -483 55 0 55 0 2 483 3
482 173 3 172 2 0 50 0 50 -405 0 -405 0 0 -50z"/>
<path d="M3874 6464 l-26 -87 -59 -26 c-51 -22 -59 -29 -59 -53 0 -27 1 -28
60 -28 l60 0 0 -274 c0 -303 5 -334 62 -393 17 -18 48 -38 67 -45 44 -15 166
-14 204 1 23 9 27 16 27 50 l0 39 -73 -5 c-86 -7 -127 9 -154 60 -16 28 -18
67 -21 300 l-4 267 121 0 121 0 0 45 0 44 -117 3 -118 3 -3 93 -3 92 -29 0
c-28 0 -30 -4 -56 -86z"/>
<path d="M3460 5960 l0 -400 55 0 55 0 0 400 0 400 -55 0 -55 0 0 -400z"/>
<path d="M4370 5960 l0 -400 60 0 60 0 0 400 0 400 -60 0 -60 0 0 -400z"/>
<path d="M1890 3320 c-13 -9 -9 -15 20 -40 45 -39 63 -40 49 -3 -19 51 -39 63
-69 43z"/>
<path d="M7805 3270 c-16 -17 -21 -50 -7 -50 4 0 23 13 42 28 l34 29 -27 5
c-17 3 -32 -1 -42 -12z"/>
<path d="M2425 2990 c-7 -11 17 -61 37 -77 10 -9 13 -5 13 21 0 46 -33 83 -50
56z"/>
</g>
</svg>
